<?xml version="1.0" standalone="no"?>
<!DOCTYPE svg PUBLIC "-//W3C//DTD SVG 20010904//EN"
 "http://www.w3.org/TR/2001/REC-SVG-20010904/DTD/svg10.dtd">
<svg version="1.0" xmlns="http://www.w3.org/2000/svg"
 width="720.000000pt" height="720.000000pt" viewBox="0 0 720.000000 720.000000"
 preserveAspectRatio="xMidYMid meet">
<metadata>
Created by potrace 1.14, written by Peter Selinger 2001-2017
</metadata>
<g transform="translate(0.000000,720.000000) scale(0.100000,-0.100000)"
fill="#000000" stroke="none">
<path d="M0 3600 l0 -3600 3600 0 3600 0 0 3600 0 3600 -3600 0 -3600 0 0
-3600z m3835 1374 c72 -10 141 -17 155 -16 24 1 135 -29 175 -48 22 -10 75
-32 88 -35 4 -2 10 -4 15 -5 4 -1 11 -2 16 -1 19 4 46 -11 40 -21 -5 -8 -1 -9
10 -5 9 4 14 3 11 -2 -3 -5 -1 -12 5 -16 5 -3 10 -2 10 4 0 6 11 5 30 -2 16
-6 27 -13 25 -15 -6 -6 13 -23 69 -62 55 -37 156 -135 200 -193 16 -20 44 -54
62 -74 19 -20 36 -45 40 -55 3 -10 9 -18 14 -18 10 0 105 -192 131 -267 30
-85 49 -160 49 -193 0 -15 5 -30 11 -32 7 -2 11 -24 11 -51 -1 -25 3 -49 9
-52 5 -4 9 -23 8 -44 -2 -20 0 -41 3 -46 8 -14 -9 -291 -23 -355 -6 -30 -20
-91 -31 -135 -12 -44 -21 -90 -20 -102 0 -13 -4 -21 -8 -18 -5 3 -11 -9 -15
-27 -8 -41 -27 -100 -36 -113 -31 -46 -79 -150 -75 -161 3 -8 -9 -25 -28 -39
-38 -29 -46 -31 -46 -10 0 8 -5 15 -11 15 -6 0 -9 -7 -5 -15 3 -8 2 -14 -2
-12 -4 1 -24 -14 -44 -33 -29 -28 -35 -41 -32 -65 2 -17 1 -22 -2 -12 -3 9 -9
17 -12 17 -10 0 -136 -100 -126 -100 5 0 -30 -25 -76 -56 -85 -55 -177 -104
-198 -104 -6 0 -12 -3 -14 -8 -1 -4 -34 -18 -73 -30 -38 -13 -79 -28 -90 -32
-11 -5 -33 -11 -50 -13 -16 -3 -41 -8 -55 -11 -139 -32 -172 -35 -340 -32
-108 2 -205 10 -255 20 -107 22 -263 76 -359 125 -44 22 -84 38 -89 34 -6 -3
-7 -1 -4 4 4 6 -1 17 -10 24 -12 10 -14 10 -9 2 4 -7 2 -13 -3 -13 -6 0 -11 4
-11 8 0 4 -14 16 -30 26 -17 9 -27 22 -24 28 4 7 2 8 -4 4 -6 -4 -19 5 -28 19
-9 14 -23 25 -30 25 -8 0 -14 5 -14 11 0 6 -7 8 -16 5 -8 -3 -12 -2 -9 3 3 5
-11 27 -31 48 -20 21 -33 31 -29 23 3 -8 -6 -2 -21 15 -15 17 -31 30 -35 30
-14 0 -50 45 -44 55 3 6 -1 10 -9 10 -9 0 -15 6 -14 13 2 6 -3 11 -10 9 -8 -1
-11 2 -7 8 4 6 -7 27 -23 48 -16 20 -35 48 -42 62 -7 14 -16 27 -19 30 -11 9
-104 189 -121 234 -6 16 -13 27 -15 24 -9 -8 33 -116 67 -175 36 -62 78 -148
78 -160 0 -4 -20 27 -45 69 -25 43 -45 80 -45 83 0 3 -9 18 -20 33 -10 15 -31
63 -45 107 -68 209 -90 386 -75 595 11 157 32 241 96 374 8 16 14 35 14 43 0
7 4 13 9 13 5 0 13 10 17 22 4 12 22 50 41 85 28 50 37 60 48 50 11 -10 10
-17 -2 -40 -7 -15 -18 -25 -23 -22 -5 3 -14 -5 -20 -17 -11 -23 -11 -23 5 -3
17 20 17 19 10 -5 -4 -14 -16 -37 -27 -52 -11 -16 -17 -32 -14 -37 4 -5 2 -11
-3 -13 -6 -1 -12 -14 -14 -28 -3 -14 -12 -43 -21 -64 -16 -39 -21 -56 -32
-111 -8 -43 12 -10 25 41 25 100 90 239 165 349 44 65 74 101 148 181 22 23
26 34 17 39 -8 6 -10 4 -4 -5 5 -8 4 -11 -3 -6 -6 3 -18 -4 -26 -16 -9 -12
-18 -20 -20 -17 -3 3 27 36 66 75 39 38 68 62 64 54 -5 -9 -2 -8 7 3 8 9 19
17 25 17 6 0 12 3 14 8 5 12 97 76 153 107 28 15 61 35 75 45 32 22 121 56
138 52 6 -2 12 2 12 8 0 6 7 4 16 -5 10 -9 23 -13 33 -9 59 25 272 72 334 73
9 1 17 6 17 12 0 16 -74 5 -227 -32 -136 -32 -141 -33 -128 -20 13 13 205 61
275 69 117 14 240 13 365 -4z m620 -174 c3 -5 1 -10 -4 -10 -6 0 -11 5 -11 10
0 6 2 10 4 10 3 0 8 -4 11 -10z m-1977 -415 c-3 -3 -9 2 -12 12 -6 14 -5 15 5
6 7 -7 10 -15 7 -18z m-18 -17 c0 -16 -3 -19 -11 -11 -6 6 -8 16 -5 22 11 17
16 13 16 -11z m31 -1561 c-10 -9 -11 -8 -5 6 3 10 9 15 12 12 3 -3 0 -11 -7
-18z m2234 -87 c-3 -5 -13 -10 -21 -10 -8 0 -12 5 -9 10 3 6 13 10 21 10 8 0
12 -4 9 -10z m-43 -42 c-7 -7 -12 -8 -12 -2 0 6 3 14 7 17 3 4 9 5 12 2 2 -3
-1 -11 -7 -17z m-1998 -54 c5 -14 4 -15 -9 -4 -17 14 -19 20 -6 20 5 0 12 -7
15 -16z"/>
<path d="M3595 4950 c17 -4 57 -8 90 -8 47 0 54 2 30 8 -16 4 -57 8 -90 8 -47
0 -54 -2 -30 -8z"/>
<path d="M3768 4943 c7 -3 16 -2 19 1 4 3 -2 6 -13 5 -11 0 -14 -3 -6 -6z"/>
<path d="M3084 4845 c-18 -13 -18 -14 4 -8 12 3 25 9 28 14 8 14 -10 11 -32
-6z"/>
<path d="M3420 4783 c-85 -13 -224 -50 -294 -78 -583 -235 -882 -892 -675
-1483 133 -377 436 -655 827 -758 121 -32 327 -43 452 -25 260 38 480 149 671
340 470 468 462 1221 -18 1682 -176 168 -388 275 -623 314 -86 13 -275 18
-340 8z"/>
<path d="M2281 3884 c0 -11 3 -14 6 -6 3 7 2 16 -1 19 -3 4 -6 -2 -5 -13z"/>
<path d="M2234 3566 c-3 -21 -4 -39 -1 -42 2 -3 8 11 11 32 4 20 5 38 2 41 -2
3 -8 -11 -12 -31z"/>
<path d="M2252 3469 c-2 -55 22 -222 35 -242 4 -6 9 -2 13 9 4 10 5 24 2 29
-4 6 -7 15 -8 22 -1 6 -9 47 -18 90 -9 43 -18 94 -19 113 -3 22 -4 14 -5 -21z"/>
<path d="M4875 2999 c-4 -6 -5 -12 -2 -15 2 -3 7 2 10 11 7 17 1 20 -8 4z"/>
<path d="M4790 2800 c-9 -6 -10 -10 -3 -10 6 0 15 5 18 10 8 12 4 12 -15 0z"/>
</g>
</svg>
